<svg xmlns="http://www.w3.org/2000/svg" version="1.1" xmlns:xlink="http://www.w3.org/1999/xlink" width="200" height="200"><svg xmlns="http://www.w3.org/2000/svg" version="1.1" xmlns:xlink="http://www.w3.org/1999/xlink" viewBox="0 0 200 200"><rect width="200" height="200" fill="url('#gradient')"></rect><defs><linearGradient id="SvgjsLinearGradient1001" gradientTransform="rotate(45 0.5 0.5)"><stop offset="0%" stop-color="#353664"></stop><stop offset="100%" stop-color="#211c36"></stop></linearGradient></defs><g><g fill="#fcfb9b" transform="matrix(2.744899478778853,0,0,2.744899478778853,9.034381196663972,118.91200478128417)" stroke="#a8dc9f" stroke-width="0.2"><path d="M6.74-4.46L6.74-14.22L10.16-14.22L10.16-4.46Q10.16-3.11 9.53-2.04Q8.90-0.98 7.77-0.39Q6.64 0.20 5.25 0.20L5.25 0.20Q2.93 0.20 1.64-0.98Q0.35-2.15 0.35-4.30L0.35-4.30L3.79-4.30Q3.79-3.32 4.13-2.88Q4.46-2.44 5.25-2.44L5.25-2.44Q5.97-2.44 6.35-2.97Q6.74-3.51 6.74-4.46L6.74-4.46ZM19.65-3.78L19.65-3.78Q19.65-4.53 19.12-4.95Q18.58-5.37 17.25-5.82Q15.91-6.27 15.06-6.69L15.06-6.69Q12.29-8.05 12.29-10.42L12.29-10.42Q12.29-11.60 12.98-12.50Q13.67-13.41 14.93-13.91Q16.19-14.41 17.76-14.41L17.76-14.41Q19.30-14.41 20.51-13.87Q21.73-13.32 22.40-12.31Q23.08-11.30 23.08-10L23.08-10L19.66-10Q19.66-10.87 19.13-11.35Q18.59-11.83 17.69-11.83L17.69-11.83Q16.77-11.83 16.24-11.42Q15.70-11.02 15.70-10.39L15.70-10.39Q15.70-9.84 16.29-9.40Q16.88-8.96 18.35-8.48Q19.82-8.01 20.77-7.46L20.77-7.46Q23.08-6.13 23.08-3.80L23.08-3.80Q23.08-1.93 21.67-0.87Q20.26 0.20 17.81 0.20L17.81 0.20Q16.08 0.20 14.68-0.42Q13.28-1.04 12.57-2.12Q11.87-3.20 11.87-4.61L11.87-4.61L15.30-4.61Q15.30-3.47 15.89-2.92Q16.48-2.38 17.81-2.38L17.81-2.38Q18.66-2.38 19.16-2.75Q19.65-3.12 19.65-3.78ZM30.67-14.22L25.81 1.22L23.48 1.22L28.33-14.22L30.67-14.22ZM40.76 0L39.93-2.66L35.23-2.66L34.41 0L30.75 0L35.97-14.22L39.19-14.22L44.44 0L40.76 0ZM37.58-10.23L36.05-5.30L39.11-5.30L37.58-10.23ZM44.91-5.36L44.91-5.36Q44.91-7.87 46.00-9.32Q47.08-10.76 49.02-10.76L49.02-10.76Q50.44-10.76 51.41-9.65L51.41-9.65L51.41-15L54.71-15L54.71 0L51.75 0L51.58-1.13Q50.57 0.20 49.00 0.20L49.00 0.20Q47.12 0.20 46.02-1.25Q44.91-2.70 44.91-5.36ZM48.21-5.76L48.20-5.16Q48.20-2.34 49.84-2.34L49.84-2.34Q50.94-2.34 51.41-3.26L51.41-3.26L51.41-7.29Q50.96-8.22 49.86-8.22L49.86-8.22Q48.34-8.22 48.21-5.76L48.21-5.76ZM59.15-10.57L60.79-3.92L62.46-10.57L65.93-10.57L62.48 0L59.12 0L55.67-10.57L59.15-10.57Z"></path></g></g></svg><style>@media (prefers-color-scheme: light) { :root { filter: none; } }
@media (prefers-color-scheme: dark) { :root { filter: none; } }
</style></svg>